<?xml version="1.0" encoding="utf-8"?>
<!-- Generator: Adobe Illustrator 16.0.0, SVG Export Plug-In . SVG Version: 6.00 Build 0)  -->
<!DOCTYPE svg PUBLIC "-//W3C//DTD SVG 1.1//EN" "http://www.w3.org/Graphics/SVG/1.1/DTD/svg11.dtd">
<svg version="1.1" id="Layer_1" xmlns="http://www.w3.org/2000/svg" xmlns:xlink="http://www.w3.org/1999/xlink" x="0px" y="0px"
	 width="30.6118164px" height="30.6118164px" viewBox="0 0 30.6118164 30.6118164"
	 enable-background="new 0 0 30.6118164 30.6118164" xml:space="preserve">
<path fill="none" stroke="#000000" stroke-miterlimit="10" d="M539.7612305-182.5073242
	c-0.0996094,0.1098633-0.1904297,0.2299805-0.2802734,0.3496094"/>
<path fill="#D3D3D3" d="M23.7133789,11.6748047h-1.5029297l-0.0244141-5.9770508l-0.09375-0.1464844
	c-1.0751953-1.6708984-3.7890625-2.8574219-6.9658203-2.8574219c-3.2695313,0-6.0761719,1.2099609-7.0839844,2.9575195v6.0234375
	H6.8969727c-0.4746094,0-0.8583984,0.3847656-0.8583984,0.8583984v14.527832c0,0.4746094,0.3837891,0.8574219,0.8583984,0.8574219
	h16.8164063c0.4746094,0,0.859375-0.3828125,0.859375-0.8574219v-14.527832
	C24.5727539,12.0595703,24.1879883,11.6748047,23.7133789,11.6748047z M15.7446289,20.1899414v3.1464844h-1.7177734v-3.1464844
	c-0.4306641-0.2792969-0.7148438-0.7675781-0.7148438-1.3183594c0-0.8691406,0.7050781-1.5742188,1.5742188-1.5742188
	s1.5742188,0.7050781,1.5742188,1.5742188C16.4604492,19.4223633,16.175293,19.9106445,15.7446289,20.1899414z
	 M20.5083008,11.6748047H9.7436523v-5.472168c1.0625-1.3481445,3.0712891-2.2578125,5.375-2.2578125
	c2.3144531,0,4.3330078,0.9189453,5.3896484,2.2768555V11.6748047z"/>
<path fill="none" stroke="#000000" stroke-miterlimit="10" d="M690.5610352-181.7475586
	c-0.1201172-0.1601563-0.25-0.3300781-0.3798828-0.4897461"/>
</svg>
